# xmcd
#
# Track frame offsets:
#	182
#	10130
#	19205
#	38165
#	51880
#	69525
#	79697
#	93105
#	105817
#	120260
#	136722
#	148652
#	163750
#	192280
#	207200
#	226182
#	239907
#	251752
#	265335
#	282285
#
# Disc length: 3978 seconds
#
# Revision: 0
# Processed by: cddbd v1.5.1PL2 Copyright (c) Steve Scherf et al.
# Submitted via: dBpowerAMP V4.0
#
DISCID=0d0f8814
DTITLE=Ray Charles - Ray Charles - His Greatest Hits Vol. 2
DYEAR=1987
DGENRE=Blues
TTITLE0=Busted
TTITLE1=Hit The Road, Jack
TTITLE2=I Can't Stop Loving You
TTITLE3=You Are My Sunshine
TTITLE4=Ruby
TTITLE5=Sticks And Stones
TTITLE6=Take These Chains From My Heart
TTITLE7=Them That Got
TTITLE8=No One
TTITLE9=Without Love (There Is Nothing)
TTITLE10=Don't Set Me Free
TTITLE11=I'm A Fool To Care
TTITLE12=Makin' Whoopee, Parts 1 and 2
TTITLE13=Hardhearted Hannah
TTITLE14=Baby It's Cold Outside
TTITLE15=At The Club
TTITLE16=In the Heat Of The Night
TTITLE17=Eleanor Rigby
TTITLE18=Look What They Done To My Song, Ma
TTITLE19=America The Beautiful
EXTD=
EXTT0=
EXTT1=
EXTT2=
EXTT3=
EXTT4=
EXTT5=
EXTT6=
EXTT7=
EXTT8=
EXTT9=
EXTT10=
EXTT11=
EXTT12=
EXTT13=
EXTT14=
EXTT15=
EXTT16=
EXTT17=
EXTT18=
EXTT19=
PLAYORDER=
